<svg width="1250" height="59" viewBox="0 0 1250 59" fill="none" xmlns="http://www.w3.org/2000/svg">
<path d="M5.85938 16.6328L4.07812 15.5547C2.96094 14.875 2.16406 14.207 1.6875 13.5508C1.21875 12.8867 0.984375 12.125 0.984375 11.2656C0.984375 9.97656 1.42969 8.92969 2.32031 8.125C3.21875 7.32031 4.38281 6.91797 5.8125 6.91797C7.17969 6.91797 8.43359 7.30078 9.57422 8.06641V10.7266C8.39453 9.59375 7.125 9.02734 5.76562 9.02734C5 9.02734 4.37109 9.20703 3.87891 9.56641C3.38672 9.91797 3.14062 10.3711 3.14062 10.9258C3.14062 11.418 3.32031 11.8789 3.67969 12.3086C4.03906 12.7383 4.62109 13.1875 5.42578 13.6562L7.21875 14.7109C9.21875 15.8984 10.2188 17.4141 10.2188 19.2578C10.2188 20.5703 9.77734 21.6367 8.89453 22.457C8.01953 23.2773 6.87891 23.6875 5.47266 23.6875C3.85547 23.6875 2.38281 23.1914 1.05469 22.1992V19.2227C2.32031 20.8242 3.78516 21.625 5.44922 21.625C6.18359 21.625 6.79297 21.4219 7.27734 21.0156C7.76953 20.6016 8.01562 20.0859 8.01562 19.4688C8.01562 18.4688 7.29688 17.5234 5.85938 16.6328ZM24.3398 7.12891H26.6836V23.5H24.3398V16.375H15.1406V23.5H12.7969V7.12891H15.1406V14.207H24.3398V7.12891ZM38.3438 6.89453C40.875 6.89453 42.9805 7.69531 44.6602 9.29688C46.3477 10.8984 47.1914 12.9062 47.1914 15.3203C47.1914 17.7344 46.3398 19.7344 44.6367 21.3203C42.9414 22.8984 40.8008 23.6875 38.2148 23.6875C35.7461 23.6875 33.6875 22.8984 32.0391 21.3203C30.3984 19.7344 29.5781 17.75 29.5781 15.3672C29.5781 12.9219 30.4062 10.8984 32.0625 9.29688C33.7188 7.69531 35.8125 6.89453 38.3438 6.89453ZM38.4375 9.12109C36.5625 9.12109 35.0195 9.70703 33.8086 10.8789C32.6055 12.0508 32.0039 13.5469 32.0039 15.3672C32.0039 17.1328 32.6094 18.6016 33.8203 19.7734C35.0312 20.9453 36.5469 21.5312 38.3672 21.5312C40.1953 21.5312 41.7188 20.9336 42.9375 19.7383C44.1641 18.543 44.7773 17.0547 44.7773 15.2734C44.7773 13.5391 44.1641 12.082 42.9375 10.9023C41.7188 9.71484 40.2188 9.12109 38.4375 9.12109ZM49.9336 23.5V7.10547H55.125C56.6875 7.10547 57.9336 7.52734 58.8633 8.37109C59.793 9.21484 60.2578 10.3477 60.2578 11.7695C60.2578 12.7227 60.0195 13.5664 59.543 14.3008C59.0664 15.0352 58.4141 15.5703 57.5859 15.9062C56.7578 16.2344 55.5703 16.3984 54.0234 16.3984H52.2891V23.5H49.9336ZM54.7148 9.19141H52.2891V14.3125H54.8555C55.8086 14.3125 56.543 14.0898 57.0586 13.6445C57.5742 13.1914 57.832 12.5469 57.832 11.7109C57.832 10.0312 56.793 9.19141 54.7148 9.19141ZM16.875 46.8945C16.875 48.293 16.3945 49.4102 15.4336 50.2461C14.4805 51.082 13.1445 51.5 11.4258 51.5H2.03906V35.2578H9.89062C10.9062 35.2578 11.7891 35.3555 12.5391 35.5508C13.2969 35.7461 13.9062 36.0156 14.3672 36.3594C14.8281 36.6953 15.1719 37.0938 15.3984 37.5547C15.625 38.0156 15.7383 38.5195 15.7383 39.0664C15.7383 39.6602 15.6211 40.2109 15.3867 40.7188C15.1523 41.2188 14.8594 41.6328 14.5078 41.9609C14.1641 42.2812 13.8164 42.5078 13.4648 42.6406C14.5742 43.0781 15.418 43.6328 15.9961 44.3047C16.582 44.9688 16.875 45.832 16.875 46.8945ZM11.1562 39.9336C11.1562 39.1523 10.8984 38.6328 10.3828 38.375C9.86719 38.1172 9.0625 37.9883 7.96875 37.9883H6.9375V41.8789H7.99219C9.10938 41.8789 9.91406 41.75 10.4062 41.4922C10.9062 41.2344 11.1562 40.7148 11.1562 39.9336ZM11.9531 46.6953C11.9531 45.3047 10.9453 44.6094 8.92969 44.6094H6.9375V48.7695H8.92969C10.9453 48.7695 11.9531 48.0781 11.9531 46.6953ZM37.1484 51.5H32.1328L30.8086 48.207H23.7539L22.4062 51.5H17.3906L24.5742 35.2578H29.9883L37.1484 51.5ZM29.6836 45.3828L27.3047 39.4531L24.9023 45.3828H29.6836ZM56.3906 51.5H50.4141L44.2031 43.8945V51.5H39.3047V35.2578H44.2031V42.5234L50.0859 35.2578H55.4062L49.3594 42.8633L56.3906 51.5ZM70.7695 51.5H58.5234V35.2578H70.5703V38.5156H63.4219V41.4922H70.2422V44.7617H63.4219V48.2305H70.7695V51.5ZM89.7891 51.5H84.5273L83.25 48.6172C82.7812 47.5625 82.3594 46.793 81.9844 46.3086C81.6094 45.8164 81.2422 45.5039 80.8828 45.3711C80.5312 45.2305 80.0742 45.1602 79.5117 45.1602H78.9609V51.5H74.0625V35.2578H82.3945C83.7383 35.2578 84.8398 35.5312 85.6992 36.0781C86.5586 36.625 87.1758 37.2891 87.5508 38.0703C87.9336 38.8516 88.125 39.5938 88.125 40.2969C88.125 41.1172 87.9648 41.8125 87.6445 42.3828C87.332 42.9453 87 43.3555 86.6484 43.6133C86.2969 43.8711 85.9023 44.1172 85.4648 44.3516C85.9883 44.6562 86.418 45.0195 86.7539 45.4414C87.0977 45.8555 87.5625 46.6992 88.1484 47.9727L89.7891 51.5ZM83.1328 40.3906C83.1328 39.6406 82.8867 39.1172 82.3945 38.8203C81.9023 38.5234 81.1016 38.375 79.9922 38.375H78.9609V42.2891H80.0156C81.2109 42.2891 82.0273 42.1602 82.4648 41.9023C82.9102 41.6367 83.1328 41.1328 83.1328 40.3906ZM107.156 35.2578L100.793 44.0586V51.5H95.8945V44.1523L89.4141 35.2578H94.5L98.2266 40.3672L101.965 35.2578H107.156Z" fill="#FAF4EA"/>
<path d="M278.495 36H275.777V30.456H270.683V36H267.965V23.148H270.683V28.188H275.777V23.148H278.495V36ZM285.544 25.974C286.864 25.974 287.872 26.262 288.568 26.838C289.276 27.402 289.63 28.272 289.63 29.448V36H287.758L287.236 34.668H287.164C286.888 35.016 286.6 35.304 286.3 35.532C286.012 35.76 285.676 35.922 285.292 36.018C284.92 36.126 284.458 36.18 283.906 36.18C283.33 36.18 282.808 36.072 282.34 35.856C281.884 35.628 281.524 35.286 281.26 34.83C280.996 34.362 280.864 33.774 280.864 33.066C280.864 32.022 281.23 31.254 281.962 30.762C282.694 30.258 283.792 29.982 285.256 29.934L286.966 29.88V29.448C286.966 28.932 286.828 28.554 286.552 28.314C286.288 28.074 285.916 27.954 285.436 27.954C284.956 27.954 284.488 28.026 284.032 28.17C283.576 28.302 283.12 28.47 282.664 28.674L281.782 26.856C282.31 26.58 282.892 26.364 283.528 26.208C284.176 26.052 284.848 25.974 285.544 25.974ZM285.922 31.482C285.058 31.506 284.458 31.662 284.122 31.95C283.786 32.238 283.618 32.616 283.618 33.084C283.618 33.492 283.738 33.786 283.978 33.966C284.218 34.134 284.53 34.218 284.914 34.218C285.49 34.218 285.976 34.05 286.372 33.714C286.768 33.366 286.966 32.88 286.966 32.256V31.446L285.922 31.482ZM307.01 26.172V36H292.376V26.172H295.058V33.984H298.352V26.172H301.034V33.984H304.328V26.172H307.01ZM312.495 26.172V36H309.813V26.172H312.495ZM311.163 22.32C311.559 22.32 311.901 22.416 312.189 22.608C312.477 22.788 312.621 23.13 312.621 23.634C312.621 24.126 312.477 24.468 312.189 24.66C311.901 24.852 311.559 24.948 311.163 24.948C310.755 24.948 310.407 24.852 310.119 24.66C309.843 24.468 309.705 24.126 309.705 23.634C309.705 23.13 309.843 22.788 310.119 22.608C310.407 22.416 310.755 22.32 311.163 22.32ZM327.723 28.188H324.501V36H321.819V28.188H318.597V26.172H327.723V28.188ZM335.008 25.992C336.112 25.992 337.006 26.424 337.69 27.288C338.374 28.14 338.716 29.4 338.716 31.068C338.716 32.184 338.554 33.126 338.23 33.894C337.906 34.65 337.462 35.22 336.898 35.604C336.334 35.988 335.68 36.18 334.936 36.18C334.468 36.18 334.06 36.12 333.712 36C333.376 35.88 333.088 35.724 332.848 35.532C332.608 35.34 332.398 35.136 332.218 34.92H332.074C332.122 35.148 332.158 35.388 332.182 35.64C332.206 35.88 332.218 36.12 332.218 36.36V40.32H329.536V26.172H331.714L332.092 27.45H332.218C332.398 27.186 332.614 26.946 332.866 26.73C333.118 26.502 333.418 26.322 333.766 26.19C334.126 26.058 334.54 25.992 335.008 25.992ZM334.144 28.134C333.676 28.134 333.304 28.23 333.028 28.422C332.752 28.614 332.548 28.908 332.416 29.304C332.296 29.688 332.23 30.174 332.218 30.762V31.05C332.218 31.686 332.278 32.226 332.398 32.67C332.518 33.102 332.722 33.432 333.01 33.66C333.298 33.888 333.688 34.002 334.18 34.002C334.588 34.002 334.924 33.888 335.188 33.66C335.452 33.432 335.65 33.096 335.782 32.652C335.914 32.208 335.98 31.668 335.98 31.032C335.98 30.072 335.83 29.352 335.53 28.872C335.242 28.38 334.78 28.134 334.144 28.134ZM344.958 25.974C346.278 25.974 347.286 26.262 347.982 26.838C348.69 27.402 349.044 28.272 349.044 29.448V36H347.172L346.65 34.668H346.578C346.302 35.016 346.014 35.304 345.714 35.532C345.426 35.76 345.09 35.922 344.706 36.018C344.334 36.126 343.872 36.18 343.32 36.18C342.744 36.18 342.222 36.072 341.754 35.856C341.298 35.628 340.938 35.286 340.674 34.83C340.41 34.362 340.278 33.774 340.278 33.066C340.278 32.022 340.644 31.254 341.376 30.762C342.108 30.258 343.206 29.982 344.67 29.934L346.38 29.88V29.448C346.38 28.932 346.242 28.554 345.966 28.314C345.702 28.074 345.33 27.954 344.85 27.954C344.37 27.954 343.902 28.026 343.446 28.17C342.99 28.302 342.534 28.47 342.078 28.674L341.196 26.856C341.724 26.58 342.306 26.364 342.942 26.208C343.59 26.052 344.262 25.974 344.958 25.974ZM345.336 31.482C344.472 31.506 343.872 31.662 343.536 31.95C343.2 32.238 343.032 32.616 343.032 33.084C343.032 33.492 343.152 33.786 343.392 33.966C343.632 34.134 343.944 34.218 344.328 34.218C344.904 34.218 345.39 34.05 345.786 33.714C346.182 33.366 346.38 32.88 346.38 32.256V31.446L345.336 31.482ZM360.628 26.172V34.038H362.068V39.528H359.656V36H353.05V39.528H350.638V34.038H351.466C351.898 33.378 352.264 32.628 352.564 31.788C352.864 30.936 353.104 30.03 353.284 29.07C353.464 28.11 353.596 27.144 353.68 26.172H360.628ZM355.93 28.188C355.834 28.908 355.714 29.61 355.57 30.294C355.426 30.966 355.246 31.614 355.03 32.238C354.826 32.862 354.574 33.462 354.274 34.038H357.946V28.188H355.93ZM366.335 30.06C366.335 30.264 366.323 30.516 366.299 30.816C366.287 31.116 366.269 31.422 366.245 31.734C366.233 32.046 366.215 32.322 366.191 32.562C366.167 32.802 366.149 32.97 366.137 33.066L370.673 26.172H373.895V36H371.303V32.076C371.303 31.752 371.315 31.398 371.339 31.014C371.363 30.618 371.387 30.252 371.411 29.916C371.447 29.568 371.471 29.304 371.483 29.124L366.965 36H363.743V26.172H366.335V30.06ZM387.426 39.528H385.014V36H376.698V26.172H379.38V33.984H383.304V26.172H385.986V34.038H387.426V39.528ZM391.773 26.172V36H389.091V26.172H391.773ZM390.441 22.32C390.837 22.32 391.179 22.416 391.467 22.608C391.755 22.788 391.899 23.13 391.899 23.634C391.899 24.126 391.755 24.468 391.467 24.66C391.179 24.852 390.837 24.948 390.441 24.948C390.033 24.948 389.685 24.852 389.397 24.66C389.121 24.468 388.983 24.126 388.983 23.634C388.983 23.13 389.121 22.788 389.397 22.608C389.685 22.416 390.033 22.32 390.441 22.32ZM397.257 36H394.575V26.172H397.257V36ZM392.901 23.652C392.901 23.232 393.021 22.932 393.261 22.752C393.501 22.56 393.789 22.464 394.125 22.464C394.461 22.464 394.749 22.56 394.989 22.752C395.241 22.932 395.367 23.232 395.367 23.652C395.367 24.048 395.241 24.342 394.989 24.534C394.749 24.726 394.461 24.822 394.125 24.822C393.789 24.822 393.501 24.726 393.261 24.534C393.021 24.342 392.901 24.048 392.901 23.652ZM396.447 23.652C396.447 23.232 396.567 22.932 396.807 22.752C397.047 22.56 397.341 22.464 397.689 22.464C398.025 22.464 398.313 22.56 398.553 22.752C398.805 22.932 398.931 23.232 398.931 23.652C398.931 24.048 398.805 24.342 398.553 24.534C398.313 24.726 398.025 24.822 397.689 24.822C397.353 24.822 397.059 24.726 396.807 24.534C396.567 24.342 396.447 24.048 396.447 23.652Z" fill="#819B57"/>
<path d="M479.992 36H464.836V23.148H466.456V34.56H471.586V23.148H473.206V34.56H478.354V23.148H479.992V36ZM487.014 26.172C487.842 26.172 488.55 26.352 489.138 26.712C489.738 27.072 490.194 27.582 490.506 28.242C490.83 28.89 490.992 29.652 490.992 30.528V31.482H484.386C484.41 32.574 484.686 33.408 485.214 33.984C485.754 34.548 486.504 34.83 487.464 34.83C488.076 34.83 488.616 34.776 489.084 34.668C489.564 34.548 490.056 34.38 490.56 34.164V35.55C490.068 35.766 489.582 35.922 489.102 36.018C488.622 36.126 488.052 36.18 487.392 36.18C486.48 36.18 485.67 35.994 484.962 35.622C484.266 35.25 483.72 34.698 483.324 33.966C482.94 33.222 482.748 32.316 482.748 31.248C482.748 30.192 482.922 29.286 483.27 28.53C483.63 27.774 484.128 27.192 484.764 26.784C485.412 26.376 486.162 26.172 487.014 26.172ZM486.996 27.468C486.24 27.468 485.64 27.714 485.196 28.206C484.764 28.686 484.506 29.358 484.422 30.222H489.336C489.336 29.67 489.252 29.19 489.084 28.782C488.916 28.374 488.658 28.056 488.31 27.828C487.974 27.588 487.536 27.468 486.996 27.468ZM499.208 26.208C500.168 26.292 501.002 26.544 501.71 26.964C502.43 27.384 502.988 27.948 503.384 28.656C503.78 29.364 503.978 30.204 503.978 31.176C503.978 32.148 503.786 32.994 503.402 33.714C503.018 34.422 502.472 34.986 501.764 35.406C501.056 35.814 500.204 36.06 499.208 36.144V40.32H497.66V36.144C496.712 36.06 495.878 35.814 495.158 35.406C494.438 34.986 493.88 34.422 493.484 33.714C493.088 32.994 492.89 32.148 492.89 31.176C492.89 30.192 493.082 29.346 493.466 28.638C493.85 27.918 494.402 27.354 495.122 26.946C495.842 26.526 496.706 26.28 497.714 26.208V22.32H499.208V26.208ZM497.714 27.522C496.982 27.594 496.382 27.78 495.914 28.08C495.446 28.38 495.098 28.788 494.87 29.304C494.654 29.82 494.546 30.444 494.546 31.176C494.546 31.896 494.654 32.52 494.87 33.048C495.098 33.564 495.446 33.978 495.914 34.29C496.382 34.59 496.982 34.776 497.714 34.848V27.522ZM499.208 34.848C499.928 34.764 500.516 34.572 500.972 34.272C501.44 33.972 501.782 33.564 501.998 33.048C502.226 32.52 502.34 31.896 502.34 31.176C502.34 30.456 502.226 29.838 501.998 29.322C501.77 28.806 501.422 28.398 500.954 28.098C500.498 27.798 499.916 27.612 499.208 27.54V34.848ZM513.187 28.71V30.096H506.005V28.71H513.187ZM522.111 26.352H523.839L519.717 30.996L524.181 36H522.345L517.989 31.104V36H516.405V26.352H517.989V31.032L522.111 26.352ZM524.42 26.352H526.112L528.2 31.842C528.32 32.166 528.428 32.478 528.524 32.778C528.632 33.078 528.728 33.372 528.812 33.66C528.896 33.936 528.962 34.206 529.01 34.47H529.082C529.154 34.17 529.268 33.78 529.424 33.3C529.58 32.808 529.742 32.316 529.91 31.824L531.872 26.352H533.582L529.424 37.332C529.196 37.932 528.926 38.454 528.614 38.898C528.314 39.354 527.942 39.702 527.498 39.942C527.066 40.194 526.538 40.32 525.914 40.32C525.626 40.32 525.374 40.302 525.158 40.266C524.942 40.242 524.756 40.212 524.6 40.176V38.916C524.732 38.94 524.888 38.964 525.068 38.988C525.26 39.012 525.458 39.024 525.662 39.024C526.034 39.024 526.352 38.952 526.616 38.808C526.892 38.676 527.126 38.478 527.318 38.214C527.51 37.962 527.672 37.662 527.804 37.314L528.308 36.036L524.42 26.352ZM537.394 31.068L534.064 26.352H535.864L538.348 29.988L540.814 26.352H542.596L539.266 31.068L542.776 36H540.976L538.348 32.148L535.684 36H533.902L537.394 31.068ZM548.289 26.19C549.465 26.19 550.335 26.448 550.899 26.964C551.463 27.48 551.745 28.302 551.745 29.43V36H550.593L550.287 34.632H550.215C549.939 34.98 549.651 35.274 549.351 35.514C549.063 35.742 548.727 35.91 548.343 36.018C547.971 36.126 547.515 36.18 546.975 36.18C546.399 36.18 545.877 36.078 545.409 35.874C544.953 35.67 544.593 35.358 544.329 34.938C544.065 34.506 543.933 33.966 543.933 33.318C543.933 32.358 544.311 31.62 545.067 31.104C545.823 30.576 546.987 30.288 548.559 30.24L550.197 30.186V29.61C550.197 28.806 550.023 28.248 549.675 27.936C549.327 27.624 548.835 27.468 548.199 27.468C547.695 27.468 547.215 27.546 546.759 27.702C546.303 27.846 545.877 28.014 545.481 28.206L544.995 27.018C545.415 26.79 545.913 26.598 546.489 26.442C547.065 26.274 547.665 26.19 548.289 26.19ZM548.757 31.338C547.557 31.386 546.723 31.578 546.255 31.914C545.799 32.25 545.571 32.724 545.571 33.336C545.571 33.876 545.733 34.272 546.057 34.524C546.393 34.776 546.819 34.902 547.335 34.902C548.151 34.902 548.829 34.68 549.369 34.236C549.909 33.78 550.179 33.084 550.179 32.148V31.284L548.757 31.338ZM559.315 26.172C560.503 26.172 561.457 26.586 562.177 27.414C562.909 28.242 563.275 29.49 563.275 31.158C563.275 32.25 563.107 33.174 562.771 33.93C562.447 34.674 561.985 35.238 561.385 35.622C560.797 35.994 560.101 36.18 559.297 36.18C558.805 36.18 558.367 36.114 557.983 35.982C557.599 35.85 557.269 35.682 556.993 35.478C556.729 35.262 556.501 35.028 556.309 34.776H556.201C556.225 34.98 556.249 35.238 556.273 35.55C556.297 35.862 556.309 36.132 556.309 36.36V40.32H554.725V26.352H556.021L556.237 27.666H556.309C556.501 27.39 556.729 27.138 556.993 26.91C557.269 26.682 557.593 26.502 557.965 26.37C558.349 26.238 558.799 26.172 559.315 26.172ZM559.027 27.504C558.379 27.504 557.857 27.63 557.461 27.882C557.065 28.122 556.777 28.488 556.597 28.98C556.417 29.472 556.321 30.096 556.309 30.852V31.158C556.309 31.95 556.393 32.622 556.561 33.174C556.729 33.726 557.011 34.146 557.407 34.434C557.815 34.722 558.367 34.866 559.063 34.866C559.651 34.866 560.131 34.704 560.503 34.38C560.887 34.056 561.169 33.618 561.349 33.066C561.541 32.502 561.637 31.86 561.637 31.14C561.637 30.036 561.421 29.154 560.989 28.494C560.569 27.834 559.915 27.504 559.027 27.504ZM567.384 26.352V36H565.8V26.352H567.384ZM566.61 22.734C566.85 22.734 567.06 22.818 567.24 22.986C567.432 23.142 567.528 23.394 567.528 23.742C567.528 24.078 567.432 24.33 567.24 24.498C567.06 24.666 566.85 24.75 566.61 24.75C566.346 24.75 566.124 24.666 565.944 24.498C565.764 24.33 565.674 24.078 565.674 23.742C565.674 23.394 565.764 23.142 565.944 22.986C566.124 22.818 566.346 22.734 566.61 22.734Z" fill="#FAF4EA"/>
<path d="M641.485 22.968V24.552C642.877 24.576 643.975 24.804 644.779 25.236C645.583 25.668 646.153 26.244 646.489 26.964C646.825 27.672 646.993 28.464 646.993 29.34C646.993 29.916 646.903 30.492 646.723 31.068C646.555 31.632 646.261 32.148 645.841 32.616C645.421 33.072 644.857 33.444 644.149 33.732C643.441 34.02 642.553 34.176 641.485 34.2V36.18H639.883V34.2C638.791 34.176 637.885 34.02 637.165 33.732C636.457 33.432 635.899 33.048 635.491 32.58C635.083 32.1 634.795 31.578 634.627 31.014C634.459 30.45 634.375 29.892 634.375 29.34C634.375 28.704 634.465 28.104 634.645 27.54C634.837 26.964 635.143 26.46 635.563 26.028C635.995 25.584 636.565 25.23 637.273 24.966C637.981 24.702 638.851 24.564 639.883 24.552V22.968H641.485ZM639.883 25.92C638.923 25.944 638.155 26.1 637.579 26.388C637.015 26.676 636.613 27.072 636.373 27.576C636.133 28.068 636.013 28.65 636.013 29.322C636.013 30.03 636.145 30.648 636.409 31.176C636.685 31.692 637.105 32.094 637.669 32.382C638.245 32.67 638.983 32.832 639.883 32.868V25.92ZM641.485 32.868C642.409 32.832 643.153 32.664 643.717 32.364C644.293 32.064 644.707 31.656 644.959 31.14C645.223 30.612 645.355 30.006 645.355 29.322C645.355 28.638 645.235 28.05 644.995 27.558C644.755 27.054 644.353 26.664 643.789 26.388C643.225 26.1 642.457 25.944 641.485 25.92V32.868ZM657.842 31.158C657.842 31.962 657.734 32.676 657.518 33.3C657.314 33.912 657.014 34.434 656.618 34.866C656.234 35.298 655.76 35.628 655.196 35.856C654.644 36.072 654.026 36.18 653.342 36.18C652.706 36.18 652.118 36.072 651.578 35.856C651.038 35.628 650.57 35.298 650.174 34.866C649.778 34.434 649.466 33.912 649.238 33.3C649.022 32.676 648.914 31.962 648.914 31.158C648.914 30.09 649.094 29.19 649.454 28.458C649.814 27.714 650.33 27.15 651.002 26.766C651.674 26.37 652.472 26.172 653.396 26.172C654.272 26.172 655.04 26.37 655.7 26.766C656.372 27.15 656.894 27.714 657.266 28.458C657.65 29.19 657.842 30.09 657.842 31.158ZM650.552 31.158C650.552 31.914 650.648 32.574 650.84 33.138C651.044 33.69 651.356 34.116 651.776 34.416C652.196 34.716 652.73 34.866 653.378 34.866C654.026 34.866 654.56 34.716 654.98 34.416C655.4 34.116 655.706 33.69 655.898 33.138C656.102 32.574 656.204 31.914 656.204 31.158C656.204 30.39 656.102 29.736 655.898 29.196C655.694 28.656 655.382 28.242 654.962 27.954C654.554 27.654 654.02 27.504 653.36 27.504C652.376 27.504 651.662 27.828 651.218 28.476C650.774 29.124 650.552 30.018 650.552 31.158ZM664.942 26.172C666.13 26.172 667.084 26.586 667.804 27.414C668.536 28.242 668.902 29.49 668.902 31.158C668.902 32.25 668.734 33.174 668.398 33.93C668.074 34.674 667.612 35.238 667.012 35.622C666.424 35.994 665.728 36.18 664.924 36.18C664.432 36.18 663.994 36.114 663.61 35.982C663.226 35.85 662.896 35.682 662.62 35.478C662.356 35.262 662.128 35.028 661.936 34.776H661.828C661.852 34.98 661.876 35.238 661.9 35.55C661.924 35.862 661.936 36.132 661.936 36.36V40.32H660.352V26.352H661.648L661.864 27.666H661.936C662.128 27.39 662.356 27.138 662.62 26.91C662.896 26.682 663.22 26.502 663.592 26.37C663.976 26.238 664.426 26.172 664.942 26.172ZM664.654 27.504C664.006 27.504 663.484 27.63 663.088 27.882C662.692 28.122 662.404 28.488 662.224 28.98C662.044 29.472 661.948 30.096 661.936 30.852V31.158C661.936 31.95 662.02 32.622 662.188 33.174C662.356 33.726 662.638 34.146 663.034 34.434C663.442 34.722 663.994 34.866 664.69 34.866C665.278 34.866 665.758 34.704 666.13 34.38C666.514 34.056 666.796 33.618 666.976 33.066C667.168 32.502 667.264 31.86 667.264 31.14C667.264 30.036 667.048 29.154 666.616 28.494C666.196 27.834 665.542 27.504 664.654 27.504ZM681.776 26.352V36H680.354V29.844C680.354 29.592 680.36 29.328 680.372 29.052C680.396 28.776 680.42 28.506 680.444 28.242H680.39L677.24 36H675.908L672.848 28.242H672.794C672.818 28.506 672.83 28.776 672.83 29.052C672.842 29.328 672.848 29.61 672.848 29.898V36H671.426V26.352H673.532L676.574 34.11L679.67 26.352H681.776ZM688.51 26.19C689.686 26.19 690.556 26.448 691.12 26.964C691.684 27.48 691.966 28.302 691.966 29.43V36H690.814L690.508 34.632H690.436C690.16 34.98 689.872 35.274 689.572 35.514C689.284 35.742 688.948 35.91 688.564 36.018C688.192 36.126 687.736 36.18 687.196 36.18C686.62 36.18 686.098 36.078 685.63 35.874C685.174 35.67 684.814 35.358 684.55 34.938C684.286 34.506 684.154 33.966 684.154 33.318C684.154 32.358 684.532 31.62 685.288 31.104C686.044 30.576 687.208 30.288 688.78 30.24L690.418 30.186V29.61C690.418 28.806 690.244 28.248 689.896 27.936C689.548 27.624 689.056 27.468 688.42 27.468C687.916 27.468 687.436 27.546 686.98 27.702C686.524 27.846 686.098 28.014 685.702 28.206L685.216 27.018C685.636 26.79 686.134 26.598 686.71 26.442C687.286 26.274 687.886 26.19 688.51 26.19ZM688.978 31.338C687.778 31.386 686.944 31.578 686.476 31.914C686.02 32.25 685.792 32.724 685.792 33.336C685.792 33.876 685.954 34.272 686.278 34.524C686.614 34.776 687.04 34.902 687.556 34.902C688.372 34.902 689.05 34.68 689.59 34.236C690.13 33.78 690.4 33.084 690.4 32.148V31.284L688.978 31.338ZM701.606 27.684H698.456V36H696.89V27.684H693.776V26.352H701.606V27.684ZM705.001 32.238C705.001 32.346 704.995 32.502 704.983 32.706C704.983 32.898 704.977 33.108 704.965 33.336C704.953 33.552 704.941 33.762 704.929 33.966C704.917 34.158 704.905 34.314 704.893 34.434L710.059 26.352H712.003V36H710.527V30.312C710.527 30.12 710.527 29.868 710.527 29.556C710.539 29.244 710.551 28.938 710.563 28.638C710.575 28.326 710.587 28.092 710.599 27.936L705.469 36H703.507V26.352H705.001V32.238Z" fill="#FAF4EA"/>
<path d="M789.228 36H787.284L781.47 29.484V36H779.85V23.148H781.47V29.376L787.14 23.148H788.976L783.396 29.394L789.228 36ZM799.149 31.158C799.149 31.962 799.041 32.676 798.825 33.3C798.621 33.912 798.321 34.434 797.925 34.866C797.541 35.298 797.067 35.628 796.503 35.856C795.951 36.072 795.333 36.18 794.649 36.18C794.013 36.18 793.425 36.072 792.885 35.856C792.345 35.628 791.877 35.298 791.481 34.866C791.085 34.434 790.773 33.912 790.545 33.3C790.329 32.676 790.221 31.962 790.221 31.158C790.221 30.09 790.401 29.19 790.761 28.458C791.121 27.714 791.637 27.15 792.309 26.766C792.981 26.37 793.779 26.172 794.703 26.172C795.579 26.172 796.347 26.37 797.007 26.766C797.679 27.15 798.201 27.714 798.573 28.458C798.957 29.19 799.149 30.09 799.149 31.158ZM791.859 31.158C791.859 31.914 791.955 32.574 792.147 33.138C792.351 33.69 792.663 34.116 793.083 34.416C793.503 34.716 794.037 34.866 794.685 34.866C795.333 34.866 795.867 34.716 796.287 34.416C796.707 34.116 797.013 33.69 797.205 33.138C797.409 32.574 797.511 31.914 797.511 31.158C797.511 30.39 797.409 29.736 797.205 29.196C797.001 28.656 796.689 28.242 796.269 27.954C795.861 27.654 795.327 27.504 794.667 27.504C793.683 27.504 792.969 27.828 792.525 28.476C792.081 29.124 791.859 30.018 791.859 31.158ZM803.244 26.352V30.366H808.482V26.352H810.066V36H808.482V31.698H803.244V36H801.66V26.352H803.244ZM819.781 27.684H816.631V36H815.065V27.684H811.951V26.352H819.781V27.684ZM825.335 26.19C826.511 26.19 827.381 26.448 827.945 26.964C828.509 27.48 828.791 28.302 828.791 29.43V36H827.639L827.333 34.632H827.261C826.985 34.98 826.697 35.274 826.397 35.514C826.109 35.742 825.773 35.91 825.389 36.018C825.017 36.126 824.561 36.18 824.021 36.18C823.445 36.18 822.923 36.078 822.455 35.874C821.999 35.67 821.639 35.358 821.375 34.938C821.111 34.506 820.979 33.966 820.979 33.318C820.979 32.358 821.357 31.62 822.113 31.104C822.869 30.576 824.033 30.288 825.605 30.24L827.243 30.186V29.61C827.243 28.806 827.069 28.248 826.721 27.936C826.373 27.624 825.881 27.468 825.245 27.468C824.741 27.468 824.261 27.546 823.805 27.702C823.349 27.846 822.923 28.014 822.527 28.206L822.041 27.018C822.461 26.79 822.959 26.598 823.535 26.442C824.111 26.274 824.711 26.19 825.335 26.19ZM825.803 31.338C824.603 31.386 823.769 31.578 823.301 31.914C822.845 32.25 822.617 32.724 822.617 33.336C822.617 33.876 822.779 34.272 823.103 34.524C823.439 34.776 823.865 34.902 824.381 34.902C825.197 34.902 825.875 34.68 826.415 34.236C826.955 33.78 827.225 33.084 827.225 32.148V31.284L825.803 31.338ZM837.477 26.352H839.205L835.083 30.996L839.547 36H837.711L833.355 31.104V36H831.771V26.352H833.355V31.032L837.477 26.352ZM847.959 27.684H844.809V36H843.243V27.684H840.129V26.352H847.959V27.684ZM851.353 32.238C851.353 32.346 851.347 32.502 851.335 32.706C851.335 32.898 851.329 33.108 851.317 33.336C851.305 33.552 851.293 33.762 851.281 33.966C851.269 34.158 851.257 34.314 851.245 34.434L856.411 26.352H858.355V36H856.879V30.312C856.879 30.12 856.879 29.868 856.879 29.556C856.891 29.244 856.903 28.938 856.915 28.638C856.927 28.326 856.939 28.092 856.951 27.936L851.821 36H849.859V26.352H851.353V32.238Z" fill="#FAF4EA"/>
<rect x="1013" y="1" width="236" height="57" rx="7" fill="#819B57"/>
<rect x="1013" y="1" width="236" height="57" rx="7" stroke="#819B57" stroke-width="2"/>
<path d="M1054.49 26.154C1054.49 27.018 1054.19 27.714 1053.58 28.242C1052.96 28.77 1052.18 29.1 1051.24 29.232V29.286C1052.41 29.406 1053.31 29.736 1053.94 30.276C1054.57 30.804 1054.89 31.494 1054.89 32.346C1054.89 33.09 1054.69 33.756 1054.28 34.344C1053.87 34.92 1053.26 35.37 1052.46 35.694C1051.66 36.018 1050.66 36.18 1049.47 36.18C1048.5 36.18 1047.64 36.12 1046.88 36C1046.14 35.88 1045.49 35.706 1044.94 35.478V33.192C1045.31 33.372 1045.73 33.528 1046.2 33.66C1046.66 33.78 1047.14 33.876 1047.62 33.948C1048.1 34.008 1048.54 34.038 1048.95 34.038C1050.09 34.038 1050.91 33.876 1051.42 33.552C1051.93 33.216 1052.19 32.748 1052.19 32.148C1052.19 31.536 1051.82 31.092 1051.07 30.816C1050.33 30.528 1049.33 30.384 1048.07 30.384H1046.86V28.26H1047.94C1048.96 28.26 1049.75 28.194 1050.32 28.062C1050.88 27.93 1051.28 27.738 1051.51 27.486C1051.73 27.234 1051.85 26.934 1051.85 26.586C1051.85 26.142 1051.65 25.794 1051.25 25.542C1050.87 25.278 1050.29 25.146 1049.51 25.146C1048.85 25.146 1048.22 25.242 1047.64 25.434C1047.06 25.626 1046.52 25.878 1046.02 26.19L1044.83 24.372C1045.27 24.084 1045.74 23.838 1046.23 23.634C1046.74 23.418 1047.29 23.256 1047.89 23.148C1048.49 23.028 1049.15 22.968 1049.89 22.968C1050.86 22.968 1051.69 23.106 1052.37 23.382C1053.05 23.658 1053.58 24.036 1053.94 24.516C1054.31 24.984 1054.49 25.53 1054.49 26.154ZM1061.11 25.974C1062.43 25.974 1063.44 26.262 1064.13 26.838C1064.84 27.402 1065.19 28.272 1065.19 29.448V36H1063.32L1062.8 34.668H1062.73C1062.45 35.016 1062.16 35.304 1061.86 35.532C1061.58 35.76 1061.24 35.922 1060.86 36.018C1060.48 36.126 1060.02 36.18 1059.47 36.18C1058.89 36.18 1058.37 36.072 1057.9 35.856C1057.45 35.628 1057.09 35.286 1056.82 34.83C1056.56 34.362 1056.43 33.774 1056.43 33.066C1056.43 32.022 1056.79 31.254 1057.53 30.762C1058.26 30.258 1059.36 29.982 1060.82 29.934L1062.53 29.88V29.448C1062.53 28.932 1062.39 28.554 1062.12 28.314C1061.85 28.074 1061.48 27.954 1061 27.954C1060.52 27.954 1060.05 28.026 1059.6 28.17C1059.14 28.302 1058.68 28.47 1058.23 28.674L1057.35 26.856C1057.87 26.58 1058.46 26.364 1059.09 26.208C1059.74 26.052 1060.41 25.974 1061.11 25.974ZM1061.49 31.482C1060.62 31.506 1060.02 31.662 1059.69 31.95C1059.35 32.238 1059.18 32.616 1059.18 33.084C1059.18 33.492 1059.3 33.786 1059.54 33.966C1059.78 34.134 1060.09 34.218 1060.48 34.218C1061.05 34.218 1061.54 34.05 1061.94 33.714C1062.33 33.366 1062.53 32.88 1062.53 32.256V31.446L1061.49 31.482ZM1080.32 26.172V36H1077.82V31.176C1077.82 30.696 1077.83 30.228 1077.84 29.772C1077.86 29.316 1077.89 28.896 1077.93 28.512H1077.88L1075.16 36H1073.14L1070.39 28.494H1070.32C1070.36 28.89 1070.39 29.316 1070.41 29.772C1070.43 30.216 1070.44 30.708 1070.44 31.248V36H1067.94V26.172H1071.74L1074.19 32.832L1076.67 26.172H1080.32ZM1092.05 31.068C1092.05 31.884 1091.94 32.61 1091.71 33.246C1091.5 33.882 1091.18 34.422 1090.76 34.866C1090.35 35.298 1089.85 35.628 1089.26 35.856C1088.68 36.072 1088.01 36.18 1087.27 36.18C1086.58 36.18 1085.95 36.072 1085.36 35.856C1084.78 35.628 1084.28 35.298 1083.86 34.866C1083.44 34.422 1083.11 33.882 1082.87 33.246C1082.65 32.61 1082.53 31.884 1082.53 31.068C1082.53 29.976 1082.72 29.058 1083.11 28.314C1083.49 27.558 1084.04 26.982 1084.76 26.586C1085.48 26.19 1086.34 25.992 1087.32 25.992C1088.24 25.992 1089.06 26.19 1089.77 26.586C1090.48 26.982 1091.03 27.558 1091.44 28.314C1091.85 29.058 1092.05 29.976 1092.05 31.068ZM1085.27 31.068C1085.27 31.716 1085.33 32.262 1085.47 32.706C1085.61 33.138 1085.83 33.468 1086.13 33.696C1086.43 33.912 1086.82 34.02 1087.3 34.02C1087.78 34.02 1088.17 33.912 1088.45 33.696C1088.75 33.468 1088.97 33.138 1089.1 32.706C1089.25 32.262 1089.32 31.716 1089.32 31.068C1089.32 30.42 1089.25 29.88 1089.1 29.448C1088.97 29.016 1088.75 28.692 1088.45 28.476C1088.15 28.26 1087.76 28.152 1087.28 28.152C1086.58 28.152 1086.06 28.398 1085.74 28.89C1085.42 29.37 1085.27 30.096 1085.27 31.068ZM1102.98 28.746C1102.98 29.274 1102.82 29.724 1102.48 30.096C1102.16 30.468 1101.67 30.708 1101.02 30.816V30.888C1101.71 30.972 1102.25 31.206 1102.66 31.59C1103.08 31.974 1103.29 32.466 1103.29 33.066C1103.29 33.486 1103.21 33.876 1103.04 34.236C1102.88 34.596 1102.63 34.908 1102.28 35.172C1101.93 35.436 1101.48 35.64 1100.93 35.784C1100.39 35.928 1099.73 36 1098.95 36H1094.27V26.172H1098.95C1099.72 26.172 1100.4 26.256 1101 26.424C1101.62 26.58 1102.1 26.844 1102.44 27.216C1102.8 27.588 1102.98 28.098 1102.98 28.746ZM1100.52 32.922C1100.52 32.538 1100.37 32.262 1100.07 32.094C1099.77 31.914 1099.32 31.824 1098.72 31.824H1096.95V34.146H1098.77C1099.28 34.146 1099.69 34.056 1100.01 33.876C1100.35 33.684 1100.52 33.366 1100.52 32.922ZM1100.27 28.962C1100.27 28.65 1100.15 28.422 1099.91 28.278C1099.67 28.134 1099.31 28.062 1098.84 28.062H1096.95V30.006H1098.54C1099.1 30.006 1099.53 29.928 1099.82 29.772C1100.12 29.604 1100.27 29.334 1100.27 28.962ZM1108.18 30.06C1108.18 30.264 1108.17 30.516 1108.15 30.816C1108.14 31.116 1108.12 31.422 1108.09 31.734C1108.08 32.046 1108.06 32.322 1108.04 32.562C1108.02 32.802 1108 32.97 1107.99 33.066L1112.52 26.172H1115.74V36H1113.15V32.076C1113.15 31.752 1113.16 31.398 1113.19 31.014C1113.21 30.618 1113.24 30.252 1113.26 29.916C1113.3 29.568 1113.32 29.304 1113.33 29.124L1108.81 36H1105.59V26.172H1108.18V30.06ZM1126.68 28.188H1123.46V36H1120.78V28.188H1117.56V26.172H1126.68V28.188ZM1131.09 30.06C1131.09 30.264 1131.08 30.516 1131.05 30.816C1131.04 31.116 1131.02 31.422 1131 31.734C1130.99 32.046 1130.97 32.322 1130.94 32.562C1130.92 32.802 1130.9 32.97 1130.89 33.066L1135.43 26.172H1138.65V36H1136.06V32.076C1136.06 31.752 1136.07 31.398 1136.09 31.014C1136.12 30.618 1136.14 30.252 1136.16 29.916C1136.2 29.568 1136.22 29.304 1136.24 29.124L1131.72 36H1128.5V26.172H1131.09V30.06ZM1154.58 26.172V34.038H1156.02V39.528H1153.61V36H1147V39.528H1144.59V34.038H1145.42C1145.85 33.378 1146.21 32.628 1146.51 31.788C1146.81 30.936 1147.05 30.03 1147.23 29.07C1147.41 28.11 1147.55 27.144 1147.63 26.172H1154.58ZM1149.88 28.188C1149.78 28.908 1149.66 29.61 1149.52 30.294C1149.38 30.966 1149.2 31.614 1148.98 32.238C1148.78 32.862 1148.52 33.462 1148.22 34.038H1151.9V28.188H1149.88ZM1161.28 25.992C1161.98 25.992 1162.64 26.088 1163.26 26.28C1163.88 26.46 1164.38 26.742 1164.75 27.126C1165.13 27.51 1165.33 28.002 1165.33 28.602C1165.33 29.19 1165.15 29.658 1164.79 30.006C1164.44 30.354 1163.96 30.606 1163.36 30.762V30.852C1163.78 30.948 1164.16 31.086 1164.5 31.266C1164.83 31.434 1165.1 31.668 1165.29 31.968C1165.49 32.256 1165.6 32.646 1165.6 33.138C1165.6 33.678 1165.42 34.182 1165.07 34.65C1164.74 35.106 1164.21 35.478 1163.49 35.766C1162.78 36.042 1161.87 36.18 1160.75 36.18C1160.23 36.18 1159.73 36.156 1159.26 36.108C1158.79 36.06 1158.37 35.994 1157.98 35.91C1157.6 35.814 1157.26 35.7 1156.97 35.568V33.354C1157.38 33.546 1157.88 33.72 1158.47 33.876C1159.07 34.032 1159.7 34.11 1160.38 34.11C1160.87 34.11 1161.31 34.074 1161.69 34.002C1162.09 33.93 1162.4 33.81 1162.63 33.642C1162.87 33.474 1162.99 33.252 1162.99 32.976C1162.99 32.712 1162.88 32.496 1162.68 32.328C1162.48 32.148 1162.17 32.016 1161.76 31.932C1161.35 31.848 1160.83 31.806 1160.2 31.806H1159.15V29.952H1160.14C1161.03 29.952 1161.71 29.88 1162.19 29.736C1162.69 29.592 1162.93 29.322 1162.93 28.926C1162.93 28.614 1162.78 28.38 1162.46 28.224C1162.15 28.056 1161.64 27.972 1160.93 27.972C1160.47 27.972 1159.96 28.026 1159.4 28.134C1158.85 28.242 1158.33 28.398 1157.84 28.602L1157.05 26.73C1157.61 26.514 1158.23 26.34 1158.9 26.208C1159.57 26.064 1160.36 25.992 1161.28 25.992ZM1176.39 28.746C1176.39 29.274 1176.22 29.724 1175.89 30.096C1175.56 30.468 1175.08 30.708 1174.43 30.816V30.888C1175.11 30.972 1175.66 31.206 1176.07 31.59C1176.49 31.974 1176.7 32.466 1176.7 33.066C1176.7 33.486 1176.61 33.876 1176.44 34.236C1176.29 34.596 1176.04 34.908 1175.69 35.172C1175.34 35.436 1174.89 35.64 1174.34 35.784C1173.8 35.928 1173.14 36 1172.36 36H1167.68V26.172H1172.36C1173.13 26.172 1173.81 26.256 1174.41 26.424C1175.02 26.58 1175.5 26.844 1175.85 27.216C1176.21 27.588 1176.39 28.098 1176.39 28.746ZM1173.92 32.922C1173.92 32.538 1173.77 32.262 1173.47 32.094C1173.17 31.914 1172.72 31.824 1172.12 31.824H1170.36V34.146H1172.18C1172.68 34.146 1173.1 34.056 1173.42 33.876C1173.76 33.684 1173.92 33.366 1173.92 32.922ZM1173.67 28.962C1173.67 28.65 1173.55 28.422 1173.31 28.278C1173.07 28.134 1172.72 28.062 1172.25 28.062H1170.36V30.006H1171.94C1172.51 30.006 1172.93 29.928 1173.22 29.772C1173.52 29.604 1173.67 29.334 1173.67 28.962ZM1181.68 26.172V36H1179V26.172H1181.68ZM1180.35 22.32C1180.74 22.32 1181.09 22.416 1181.37 22.608C1181.66 22.788 1181.81 23.13 1181.81 23.634C1181.81 24.126 1181.66 24.468 1181.37 24.66C1181.09 24.852 1180.74 24.948 1180.35 24.948C1179.94 24.948 1179.59 24.852 1179.3 24.66C1179.03 24.468 1178.89 24.126 1178.89 23.634C1178.89 23.13 1179.03 22.788 1179.3 22.608C1179.59 22.416 1179.94 22.32 1180.35 22.32ZM1187.16 26.172V29.952H1190.91V26.172H1193.59V36H1190.91V31.95H1187.16V36H1184.48V26.172H1187.16ZM1205.33 31.068C1205.33 31.884 1205.21 32.61 1204.99 33.246C1204.77 33.882 1204.45 34.422 1204.03 34.866C1203.62 35.298 1203.13 35.628 1202.54 35.856C1201.95 36.072 1201.28 36.18 1200.54 36.18C1199.86 36.18 1199.22 36.072 1198.63 35.856C1198.06 35.628 1197.56 35.298 1197.14 34.866C1196.72 34.422 1196.39 33.882 1196.15 33.246C1195.92 32.61 1195.81 31.884 1195.81 31.068C1195.81 29.976 1196 29.058 1196.38 28.314C1196.77 27.558 1197.32 26.982 1198.04 26.586C1198.76 26.19 1199.61 25.992 1200.59 25.992C1201.52 25.992 1202.33 26.19 1203.04 26.586C1203.75 26.982 1204.31 27.558 1204.72 28.314C1205.12 29.058 1205.33 29.976 1205.33 31.068ZM1198.54 31.068C1198.54 31.716 1198.61 32.262 1198.74 32.706C1198.88 33.138 1199.11 33.468 1199.41 33.696C1199.71 33.912 1200.1 34.02 1200.58 34.02C1201.06 34.02 1201.44 33.912 1201.73 33.696C1202.03 33.468 1202.24 33.138 1202.38 32.706C1202.52 32.262 1202.59 31.716 1202.59 31.068C1202.59 30.42 1202.52 29.88 1202.38 29.448C1202.24 29.016 1202.03 28.692 1201.73 28.476C1201.43 28.26 1201.04 28.152 1200.56 28.152C1199.85 28.152 1199.33 28.398 1199.01 28.89C1198.7 29.37 1198.54 30.096 1198.54 31.068ZM1213.99 26.172H1216.94L1213.05 30.888L1217.28 36H1214.24L1210.23 31.014V36H1207.54V26.172H1210.23V30.942L1213.99 26.172Z" fill="#FAF4EA"/>
</svg>
